# xmcd
#
# Track frame offsets:
#   150
#   13196
#   26688
#   42802
#   54753
#   67945
#   88503
#   104735
#   121318
#   134007
#   147194
#   166918
#   182867
#   203232
#
# Disc length: 2926 seconds
#
# Revision: 0
# Processed by: cddbd v1.5.1PL0 Copyright (c) Steve Scherf et al.
# Submitted via: uFREEDB ActiveX Control 1.5
#
DISCID=c20b6c0e
DTITLE=Os Quéops - Café de chaleira
DYEAR=2005
DGENRE=Country
TTITLE0=Vou cair na gandaia
TTITLE1=Dançar agarradinho
TTITLE2=Peão apaixonado
TTITLE3=Café de chaleira
TTITLE4=Dói saudade doi
TTITLE5=Quem bate esquce
TTITLE6=Bicho papão
TTITLE7=Doces loucuras
TTITLE8=Vai quem quer
TTITLE9=Não faça isso comigo
TTITLE10=Olhos azuis
TTITLE11=Coração de cowboy
TTITLE12=Você vai me procurar
TTITLE13=Deixa o telefone tocar
EXTD=
EXTT0=
EXTT1=
EXTT2=
EXTT3=
EXTT4=
EXTT5=
EXTT6=
EXTT7=
EXTT8=
EXTT9=
EXTT10=
EXTT11=
EXTT12=
EXTT13=
PLAYORDER=
